<svg xmlns="http://www.w3.org/2000/svg" width="177.949" height="38.422" viewBox="0 0 177.949 38.422">
  <g id="Group_78" data-name="Group 78" transform="translate(-550 -272)">
    <text id="Voizmail" transform="translate(587.949 301.694)" fill="#004ce6" font-size="33" font-family="Graphik-Black, Graphik" font-weight="800"><tspan x="0" y="0">Voizmail</tspan></text>
    <path id="Exclusion_2" data-name="Exclusion 2" d="M12.807,38.422a1.6,1.6,0,0,1-1.6-1.6v-1.6a1.6,1.6,0,0,1,3.2,0v1.6A1.6,1.6,0,0,1,12.807,38.422Zm0-8a1.6,1.6,0,0,1-1.6-1.6V9.606a1.6,1.6,0,0,1,3.2,0v19.21A1.6,1.6,0,0,1,12.807,30.417Zm5.6-3.2a1.6,1.6,0,0,1-1.6-1.6V12.807a1.6,1.6,0,0,1,3.2,0V25.615A1.6,1.6,0,0,1,18.41,27.215Zm-11.207,0a1.6,1.6,0,0,1-1.6-1.6V12.807a1.6,1.6,0,0,1,3.2,0V25.615A1.6,1.6,0,0,1,7.2,27.215Zm16.81-3.2a1.6,1.6,0,0,1-1.6-1.6v-6.4a1.6,1.6,0,1,1,3.2,0v6.4A1.6,1.6,0,0,1,24.014,24.014Zm-22.413,0a1.6,1.6,0,0,1-1.6-1.6v-6.4a1.6,1.6,0,0,1,3.2,0v6.4A1.6,1.6,0,0,1,1.6,24.014ZM12.807,4.8a1.6,1.6,0,0,1-1.6-1.6V1.6a1.6,1.6,0,0,1,3.2,0V3.2A1.6,1.6,0,0,1,12.807,4.8Z" transform="translate(550 272)" fill="#004ce6"/>
  </g>
</svg>
